<mxfile host="app.diagrams.net" agent="Mozilla/5.0 (Windows NT 10.0; WOW64) AppleWebKit/537.36 (KHTML, like Gecko) Chrome/94.0.4606.71 Safari/537.36 SE 2.X MetaSr 1.0" version="26.0.15">
  <diagram name="第 1 页" id="d8fcSK051ApWsuy4886Y">
    <mxGraphModel dx="1434" dy="767" grid="1" gridSize="10" guides="1" tooltips="1" connect="1" arrows="1" fold="1" page="1" pageScale="1" pageWidth="827" pageHeight="1169" math="0" shadow="0">
      <root>
        <mxCell id="0" />
        <mxCell id="1" parent="0" />
        <mxCell id="dgHX8QewxldNRwzRjOaj-6" value="" style="edgeStyle=orthogonalEdgeStyle;rounded=0;orthogonalLoop=1;jettySize=auto;html=1;fontSize=19;labelBackgroundColor=none;fontColor=default;strokeColor=#36393d;fontFamily=Georgia;fillColor=#cdeb8b;textShadow=0;labelBorderColor=none;" parent="1" source="dgHX8QewxldNRwzRjOaj-4" target="dgHX8QewxldNRwzRjOaj-5" edge="1">
          <mxGeometry relative="1" as="geometry" />
        </mxCell>
        <mxCell id="dgHX8QewxldNRwzRjOaj-4" value="第一章：绪论" style="rounded=0;whiteSpace=wrap;html=1;fontSize=19;labelBackgroundColor=none;fillColor=#cdeb8b;strokeColor=#36393d;fontFamily=Georgia;textShadow=0;labelBorderColor=none;" parent="1" vertex="1">
          <mxGeometry x="280" y="820" width="147.5" height="50" as="geometry" />
        </mxCell>
        <mxCell id="dgHX8QewxldNRwzRjOaj-7" style="edgeStyle=orthogonalEdgeStyle;rounded=0;orthogonalLoop=1;jettySize=auto;html=1;exitX=0.5;exitY=1;exitDx=0;exitDy=0;entryX=0.5;entryY=0;entryDx=0;entryDy=0;fontSize=19;labelBackgroundColor=none;fontColor=default;strokeColor=#36393d;fontFamily=Georgia;fillColor=#cdeb8b;textShadow=0;labelBorderColor=none;" parent="1" source="dgHX8QewxldNRwzRjOaj-5" target="dgHX8QewxldNRwzRjOaj-8" edge="1">
          <mxGeometry relative="1" as="geometry">
            <mxPoint x="130" y="1030" as="targetPoint" />
          </mxGeometry>
        </mxCell>
        <mxCell id="dgHX8QewxldNRwzRjOaj-10" style="edgeStyle=orthogonalEdgeStyle;rounded=0;orthogonalLoop=1;jettySize=auto;html=1;exitX=0.5;exitY=1;exitDx=0;exitDy=0;entryX=0.5;entryY=0;entryDx=0;entryDy=0;fontSize=19;labelBackgroundColor=none;fontColor=default;strokeColor=#36393d;fontFamily=Georgia;fillColor=#cdeb8b;textShadow=0;labelBorderColor=none;" parent="1" source="dgHX8QewxldNRwzRjOaj-5" target="dgHX8QewxldNRwzRjOaj-9" edge="1">
          <mxGeometry relative="1" as="geometry" />
        </mxCell>
        <mxCell id="dgHX8QewxldNRwzRjOaj-5" value="&lt;p&gt;第二章：&lt;span style=&quot;&quot;&gt;&lt;span&gt;训练故障及容错技术分析&lt;/span&gt;&lt;/span&gt;&lt;/p&gt;" style="rounded=0;whiteSpace=wrap;html=1;fontSize=19;labelBackgroundColor=none;fillColor=#cdeb8b;strokeColor=#36393d;fontFamily=Georgia;textShadow=0;labelBorderColor=none;" parent="1" vertex="1">
          <mxGeometry x="198.13" y="920" width="311.25" height="50" as="geometry" />
        </mxCell>
        <mxCell id="dgHX8QewxldNRwzRjOaj-15" style="edgeStyle=orthogonalEdgeStyle;rounded=0;orthogonalLoop=1;jettySize=auto;html=1;exitX=0.5;exitY=1;exitDx=0;exitDy=0;entryX=0.5;entryY=0;entryDx=0;entryDy=0;fontSize=19;labelBackgroundColor=none;fontColor=default;strokeColor=#36393d;fontFamily=Georgia;fillColor=#cdeb8b;textShadow=0;labelBorderColor=none;" parent="1" source="dgHX8QewxldNRwzRjOaj-8" target="dgHX8QewxldNRwzRjOaj-14" edge="1">
          <mxGeometry relative="1" as="geometry" />
        </mxCell>
        <mxCell id="dgHX8QewxldNRwzRjOaj-8" value="第三章：&lt;span style=&quot;&quot;&gt;面向&lt;font style=&quot;color: rgb(255, 0, 0);&quot;&gt;中断型训练故障&lt;/font&gt;&lt;/span&gt;&lt;div&gt;&lt;span style=&quot;&quot;&gt;的弹性自愈和断点续训容错&lt;/span&gt;&lt;/div&gt;" style="rounded=0;whiteSpace=wrap;html=1;fontSize=19;labelBackgroundColor=none;fillColor=#cdeb8b;strokeColor=#36393d;fontFamily=Georgia;textShadow=0;labelBorderColor=none;" parent="1" vertex="1">
          <mxGeometry x="10" y="1040" width="290" height="60" as="geometry" />
        </mxCell>
        <mxCell id="dgHX8QewxldNRwzRjOaj-17" style="edgeStyle=orthogonalEdgeStyle;rounded=0;orthogonalLoop=1;jettySize=auto;html=1;exitX=0.5;exitY=1;exitDx=0;exitDy=0;entryX=0.5;entryY=0;entryDx=0;entryDy=0;fontSize=19;labelBackgroundColor=none;fontColor=default;strokeColor=#36393d;fontFamily=Georgia;fillColor=#cdeb8b;textShadow=0;labelBorderColor=none;" parent="1" source="dgHX8QewxldNRwzRjOaj-9" target="dgHX8QewxldNRwzRjOaj-14" edge="1">
          <mxGeometry relative="1" as="geometry" />
        </mxCell>
        <mxCell id="dgHX8QewxldNRwzRjOaj-9" value="第四章：&lt;span style=&quot;&quot;&gt;面向&lt;font style=&quot;color: rgb(255, 0, 0);&quot;&gt;非中断型训练故障&lt;/font&gt;&lt;/span&gt;&lt;div&gt;&lt;span style=&quot;&quot;&gt;的性能异常感知与容错恢复&lt;/span&gt;&lt;/div&gt;" style="rounded=0;whiteSpace=wrap;html=1;fontSize=19;labelBackgroundColor=none;fillColor=#cdeb8b;strokeColor=#36393d;fontFamily=Georgia;textShadow=0;labelBorderColor=none;" parent="1" vertex="1">
          <mxGeometry x="427.5" y="1040" width="300" height="60" as="geometry" />
        </mxCell>
        <mxCell id="dgHX8QewxldNRwzRjOaj-19" value="" style="edgeStyle=orthogonalEdgeStyle;rounded=0;orthogonalLoop=1;jettySize=auto;html=1;fontSize=19;labelBackgroundColor=none;fontColor=default;strokeColor=#36393d;fontFamily=Georgia;fillColor=#cdeb8b;textShadow=0;labelBorderColor=none;" parent="1" source="dgHX8QewxldNRwzRjOaj-14" target="dgHX8QewxldNRwzRjOaj-18" edge="1">
          <mxGeometry relative="1" as="geometry" />
        </mxCell>
        <mxCell id="dgHX8QewxldNRwzRjOaj-14" value="第五章：&lt;span style=&quot;&quot;&gt;面向智能计算中心&lt;/span&gt;&lt;div&gt;&lt;span style=&quot;&quot;&gt;的训练容错应用与分析&lt;/span&gt;&lt;/div&gt;" style="rounded=0;whiteSpace=wrap;html=1;fontSize=19;labelBackgroundColor=none;fillColor=#cdeb8b;strokeColor=#36393d;fontFamily=Georgia;textShadow=0;labelBorderColor=none;" parent="1" vertex="1">
          <mxGeometry x="220" y="1169" width="273.75" height="60" as="geometry" />
        </mxCell>
        <mxCell id="dgHX8QewxldNRwzRjOaj-18" value="第六章：&lt;span style=&quot;&quot;&gt;总结与展望&lt;/span&gt;" style="rounded=0;whiteSpace=wrap;html=1;fontSize=19;labelBackgroundColor=none;fillColor=#cdeb8b;strokeColor=#36393d;fontFamily=Georgia;textShadow=0;labelBorderColor=none;" parent="1" vertex="1">
          <mxGeometry x="256.88" y="1280" width="200" height="50" as="geometry" />
        </mxCell>
        <mxCell id="dgHX8QewxldNRwzRjOaj-21" value="分类研究" style="text;html=1;align=center;verticalAlign=middle;resizable=0;points=[];autosize=1;strokeColor=none;fillColor=none;fontColor=#143642;fontSize=19;fontFamily=Georgia;labelBackgroundColor=none;textShadow=0;labelBorderColor=none;" parent="1" vertex="1">
          <mxGeometry x="303.75" y="1000" width="100" height="40" as="geometry" />
        </mxCell>
        <mxCell id="dgHX8QewxldNRwzRjOaj-22" value="工程应用" style="text;html=1;align=center;verticalAlign=middle;resizable=0;points=[];autosize=1;strokeColor=none;fillColor=none;fontColor=#143642;fontSize=19;fontFamily=Georgia;labelBackgroundColor=none;textShadow=0;labelBorderColor=none;" parent="1" vertex="1">
          <mxGeometry x="300" y="1103" width="100" height="40" as="geometry" />
        </mxCell>
        <mxCell id="tnMXQKqqJ4lPIqa_YWvd-7" value="" style="edgeStyle=orthogonalEdgeStyle;rounded=0;orthogonalLoop=1;jettySize=auto;html=1;fontStyle=0;fontSize=16;fontFamily=Verdana;" edge="1" parent="1" source="tnMXQKqqJ4lPIqa_YWvd-1" target="tnMXQKqqJ4lPIqa_YWvd-5">
          <mxGeometry relative="1" as="geometry" />
        </mxCell>
        <mxCell id="tnMXQKqqJ4lPIqa_YWvd-8" style="edgeStyle=orthogonalEdgeStyle;rounded=0;orthogonalLoop=1;jettySize=auto;html=1;exitX=0.5;exitY=1;exitDx=0;exitDy=0;entryX=0.5;entryY=0;entryDx=0;entryDy=0;fontStyle=0;fontSize=16;fontFamily=Verdana;" edge="1" parent="1" source="tnMXQKqqJ4lPIqa_YWvd-1" target="tnMXQKqqJ4lPIqa_YWvd-4">
          <mxGeometry relative="1" as="geometry" />
        </mxCell>
        <mxCell id="tnMXQKqqJ4lPIqa_YWvd-9" style="edgeStyle=orthogonalEdgeStyle;rounded=0;orthogonalLoop=1;jettySize=auto;html=1;exitX=0.5;exitY=1;exitDx=0;exitDy=0;fontStyle=0;fontSize=16;fontFamily=Verdana;" edge="1" parent="1" source="tnMXQKqqJ4lPIqa_YWvd-1" target="tnMXQKqqJ4lPIqa_YWvd-6">
          <mxGeometry relative="1" as="geometry" />
        </mxCell>
        <mxCell id="tnMXQKqqJ4lPIqa_YWvd-1" value="&lt;h2&gt;&lt;span style=&quot;font-family: 宋体;&quot;&gt;主动检测与定位任务&lt;/span&gt;&lt;/h2&gt;" style="rounded=0;whiteSpace=wrap;html=1;fontSize=16;fontStyle=1;fillColor=#fff2cc;strokeColor=#d6b656;gradientColor=#ffd966;" vertex="1" parent="1">
          <mxGeometry x="307.5" y="230" width="318.12" height="50" as="geometry" />
        </mxCell>
        <mxCell id="tnMXQKqqJ4lPIqa_YWvd-12" style="edgeStyle=orthogonalEdgeStyle;rounded=0;orthogonalLoop=1;jettySize=auto;html=1;exitX=0.5;exitY=1;exitDx=0;exitDy=0;entryX=0.5;entryY=0;entryDx=0;entryDy=0;fontStyle=0;fontSize=16;fontFamily=Verdana;" edge="1" parent="1" source="tnMXQKqqJ4lPIqa_YWvd-4" target="tnMXQKqqJ4lPIqa_YWvd-10">
          <mxGeometry relative="1" as="geometry" />
        </mxCell>
        <mxCell id="tnMXQKqqJ4lPIqa_YWvd-22" style="edgeStyle=orthogonalEdgeStyle;rounded=0;orthogonalLoop=1;jettySize=auto;html=1;exitX=1;exitY=0.5;exitDx=0;exitDy=0;fillColor=#ffcd28;gradientColor=#ffa500;strokeColor=#d79b00;fontStyle=0;fontFamily=Verdana;" edge="1" parent="1" source="tnMXQKqqJ4lPIqa_YWvd-4" target="tnMXQKqqJ4lPIqa_YWvd-5">
          <mxGeometry relative="1" as="geometry" />
        </mxCell>
        <mxCell id="tnMXQKqqJ4lPIqa_YWvd-4" value="&lt;h4&gt;&lt;span style=&quot;font-weight: normal;&quot;&gt;训练环境预检测任务&lt;/span&gt;&lt;/h4&gt;" style="rounded=0;whiteSpace=wrap;html=1;fontSize=16;fontStyle=0;fillColor=#ffcd28;strokeColor=#d79b00;gradientColor=#ffa500;fontFamily=Verdana;" vertex="1" parent="1">
          <mxGeometry x="134.99999999999994" y="320" width="150" height="60" as="geometry" />
        </mxCell>
        <mxCell id="tnMXQKqqJ4lPIqa_YWvd-16" style="edgeStyle=orthogonalEdgeStyle;rounded=0;orthogonalLoop=1;jettySize=auto;html=1;exitX=0.5;exitY=1;exitDx=0;exitDy=0;" edge="1" parent="1" source="tnMXQKqqJ4lPIqa_YWvd-10">
          <mxGeometry relative="1" as="geometry">
            <mxPoint x="467" y="460" as="targetPoint" />
          </mxGeometry>
        </mxCell>
        <mxCell id="tnMXQKqqJ4lPIqa_YWvd-23" style="edgeStyle=orthogonalEdgeStyle;rounded=0;orthogonalLoop=1;jettySize=auto;html=1;exitX=1;exitY=0.5;exitDx=0;exitDy=0;entryX=0;entryY=0.5;entryDx=0;entryDy=0;fillColor=#ffcd28;gradientColor=#ffa500;strokeColor=#d79b00;fontStyle=0;fontFamily=Verdana;" edge="1" parent="1" source="tnMXQKqqJ4lPIqa_YWvd-5" target="tnMXQKqqJ4lPIqa_YWvd-6">
          <mxGeometry relative="1" as="geometry" />
        </mxCell>
        <mxCell id="tnMXQKqqJ4lPIqa_YWvd-5" value="&lt;h4&gt;&lt;span style=&quot;font-weight: normal;&quot;&gt;关键日志检测任务&lt;/span&gt;&lt;/h4&gt;" style="rounded=0;whiteSpace=wrap;html=1;fontSize=16;fontStyle=0;fillColor=#ffcd28;strokeColor=#d79b00;gradientColor=#ffa500;labelBackgroundColor=none;labelBorderColor=none;textShadow=0;fontFamily=Verdana;" vertex="1" parent="1">
          <mxGeometry x="391.55999999999995" y="320" width="150" height="60" as="geometry" />
        </mxCell>
        <mxCell id="tnMXQKqqJ4lPIqa_YWvd-14" style="edgeStyle=orthogonalEdgeStyle;rounded=0;orthogonalLoop=1;jettySize=auto;html=1;exitX=0.5;exitY=1;exitDx=0;exitDy=0;entryX=0.5;entryY=0;entryDx=0;entryDy=0;fontStyle=0;fontSize=16;fontFamily=Verdana;" edge="1" parent="1" source="tnMXQKqqJ4lPIqa_YWvd-6" target="tnMXQKqqJ4lPIqa_YWvd-10">
          <mxGeometry relative="1" as="geometry" />
        </mxCell>
        <mxCell id="tnMXQKqqJ4lPIqa_YWvd-6" value="&lt;h4&gt;&lt;span style=&quot;font-weight: normal;&quot;&gt;&lt;span&gt;&lt;span style=&quot;&quot;&gt;故障节点检测&lt;/span&gt;&lt;/span&gt;&lt;span&gt;&lt;span style=&quot;&quot;&gt;&lt;font&gt;任务&lt;/font&gt;&lt;/span&gt;&lt;/span&gt;&lt;/span&gt;&lt;/h4&gt;" style="rounded=0;whiteSpace=wrap;html=1;fontSize=16;fontStyle=0;fillColor=#ffcd28;strokeColor=#d79b00;gradientColor=#ffa500;fontFamily=Verdana;" vertex="1" parent="1">
          <mxGeometry x="648.12" y="320" width="161.88" height="60" as="geometry" />
        </mxCell>
        <mxCell id="tnMXQKqqJ4lPIqa_YWvd-15" style="edgeStyle=orthogonalEdgeStyle;rounded=0;orthogonalLoop=1;jettySize=auto;html=1;exitX=0.5;exitY=1;exitDx=0;exitDy=0;entryX=0.5;entryY=0;entryDx=0;entryDy=0;fontStyle=0;fontSize=16;" edge="1" parent="1" source="tnMXQKqqJ4lPIqa_YWvd-10" target="tnMXQKqqJ4lPIqa_YWvd-11">
          <mxGeometry relative="1" as="geometry" />
        </mxCell>
        <mxCell id="tnMXQKqqJ4lPIqa_YWvd-11" value="弹性容错自愈" style="rounded=0;whiteSpace=wrap;html=1;fontStyle=0;fontSize=16;fillColor=#d5e8d4;strokeColor=#82b366;gradientColor=#97d077;" vertex="1" parent="1">
          <mxGeometry x="406.56" y="490" width="120" height="60" as="geometry" />
        </mxCell>
        <mxCell id="tnMXQKqqJ4lPIqa_YWvd-17" value="" style="edgeStyle=orthogonalEdgeStyle;rounded=0;orthogonalLoop=1;jettySize=auto;html=1;exitX=0.5;exitY=1;exitDx=0;exitDy=0;fontStyle=0;fontFamily=Verdana;" edge="1" parent="1" source="tnMXQKqqJ4lPIqa_YWvd-5" target="tnMXQKqqJ4lPIqa_YWvd-10">
          <mxGeometry relative="1" as="geometry">
            <mxPoint x="467" y="460" as="targetPoint" />
            <mxPoint x="467" y="380" as="sourcePoint" />
          </mxGeometry>
        </mxCell>
        <mxCell id="tnMXQKqqJ4lPIqa_YWvd-10" value="故障定位" style="rounded=0;whiteSpace=wrap;html=1;fontStyle=0;fontSize=16;fillColor=#e6d0de;strokeColor=#996185;gradientColor=#d5739d;" vertex="1" parent="1">
          <mxGeometry x="406.56" y="420" width="120" height="50" as="geometry" />
        </mxCell>
      </root>
    </mxGraphModel>
  </diagram>
</mxfile>
